<svg width="98" height="96" viewBox="0 0 98 96" fill="none" xmlns="http://www.w3.org/2000/svg">
<path d="M66.5 45C71.3 39 74.1667 38.1667 75 38.5L82.5 49.5" stroke="#0D072D" stroke-width="7" stroke-linecap="round"/>
<path d="M82.5 49.5C88.1 55.9 87.8333 57.5 87 57.5" stroke="#0D072D" stroke-width="7" stroke-linecap="round"/>
<path d="M58 22.0001C60.8571 14.3875 62.5238 12.8368 63 13.013" stroke="#0D072D" stroke-width="4" stroke-linecap="round"/>
<path d="M59 22.901C70.2 23.4079 73 21.8449 73 21" stroke="#0D072D" stroke-width="4" stroke-linecap="round"/>
<path d="M25.8736 57.3954C13.9733 56.1606 17.9699 63.566 17.9699 63.566C17.9699 63.566 20.0034 66.8722 22.9444 67.6107C25.8854 68.3492 31.9425 59.9634 33.8163 56.1818C35.6902 52.4002 38.1331 41.1276 38.1331 41.1276C38.1331 41.1276 46.217 21.374 42.4498 26.0734C38.6825 30.7729 44.5511 38.4365 47.6418 41.1378C50.8215 46.5558 50.7366 47.6747 51.8624 50.4734C54.1155 57.4256 60.8558 60.5537 62.8123 52.723" stroke="#0D072D" stroke-width="6" stroke-linecap="round"/>
<path d="M39.8783 48.5803L53.4694 43.5158L60.6199 33.6001L56.3976 22.6856L46.8481 17.4699L32.4424 17.4545C21.5863 19.0117 18.222 22.9245 15.9088 25.7821C13.5955 28.6398 12.1419 32.8117 12.1419 32.8117C9.70614 38.227 8.42195 45.853 8.42195 45.853C8.42946 52.8466 8.42224 46.1327 8.43215 55.3643C8.43746 60.3087 8.27478 58.7873 9.25035 62.3588M72.9829 44.6993L74.3962 53.8444L71.3159 60.7467L63.4666 70.5293L51.9667 78.9093L38.4953 81.1329C38.4953 81.1329 31.6589 81.1358 25.5828 81.119C25.5828 81.119 20.5289 79.9925 16.315 76.913C14.582 77.8298 11.5997 70.5308 10.637 67.6754M9.25035 62.3588C9.6635 63.8713 9.71794 64.9493 10.637 67.6754M9.25035 62.3588L10.637 67.6754" stroke="#0D072D" stroke-width="6" stroke-linecap="round"/>
</svg>
