<svg width="70" height="70" viewBox="0 0 70 70" fill="none" xmlns="http://www.w3.org/2000/svg">
<path d="M20.4166 11.6667H46.6666C50.5344 11.6667 54.2437 13.2031 56.9786 15.938C59.7135 18.673 61.25 22.3823 61.25 26.25H5.83331C5.83331 22.3823 7.36977 18.673 10.1047 15.938C12.8396 13.2031 16.5489 11.6667 20.4166 11.6667ZM46.6666 14.5834H20.4166C14.9916 14.5834 10.4125 18.2875 9.12915 23.3334H57.9542C56.6708 18.2875 52.0916 14.5834 46.6666 14.5834ZM61.25 46.6667C61.25 50.5344 59.7135 54.2438 56.9786 56.9787C54.2437 59.7136 50.5344 61.25 46.6666 61.25H20.4166C16.5489 61.25 12.8396 59.7136 10.1047 56.9787C7.36977 54.2438 5.83331 50.5344 5.83331 46.6667H61.25ZM20.4166 58.3334H46.6666C52.0916 58.3334 56.6708 54.6292 57.9542 49.5834H9.12915C10.4125 54.6292 14.9916 58.3334 20.4166 58.3334ZM36.4583 29.1667L42.2916 35L48.125 29.1667H55.4166C56.9637 29.1667 58.4475 29.7813 59.5414 30.8752C60.6354 31.9692 61.25 33.4529 61.25 35V37.9167C61.25 39.4638 60.6354 40.9475 59.5414 42.0415C58.4475 43.1354 56.9637 43.75 55.4166 43.75H11.6666C10.1196 43.75 8.63582 43.1354 7.54186 42.0415C6.44789 40.9475 5.83331 39.4638 5.83331 37.9167V35C5.83331 33.4529 6.44789 31.9692 7.54186 30.8752C8.63582 29.7813 10.1196 29.1667 11.6666 29.1667H36.4583ZM42.2916 39.1125L35.2625 32.0834H11.6666C10.8931 32.0834 10.1512 32.3906 9.60425 32.9376C9.05727 33.4846 8.74998 34.2265 8.74998 35V37.9167C8.74998 38.6902 9.05727 39.4321 9.60425 39.9791C10.1512 40.5261 10.8931 40.8334 11.6666 40.8334H55.4166C56.1902 40.8334 56.9321 40.5261 57.479 39.9791C58.026 39.4321 58.3333 38.6902 58.3333 37.9167V35C58.3333 34.2265 58.026 33.4846 57.479 32.9376C56.9321 32.3906 56.1902 32.0834 55.4166 32.0834H49.3208L42.2916 39.1125Z" fill="#0D072D"/>
</svg>
