<svg width="57" height="57" viewBox="0 0 57 57" fill="none" xmlns="http://www.w3.org/2000/svg">
<path d="M3.5625 16.9219C3.5625 13.4805 6.3555 10.6875 9.79688 10.6875H47.2031C50.6445 10.6875 53.4375 13.4805 53.4375 16.9219V40.0781C53.4375 41.7316 52.7807 43.3173 51.6115 44.4865C50.4423 45.6557 48.8566 46.3125 47.2031 46.3125H9.79688C8.14342 46.3125 6.55768 45.6557 5.38851 44.4865C4.21933 43.3173 3.5625 41.7316 3.5625 40.0781V16.9219ZM9.79688 14.25C9.08825 14.25 8.40865 14.5315 7.90757 15.0326C7.4065 15.5336 7.125 16.2132 7.125 16.9219V40.0781C7.125 41.553 8.322 42.75 9.79688 42.75H47.2031C47.9118 42.75 48.5914 42.4685 49.0924 41.9674C49.5935 41.4664 49.875 40.7868 49.875 40.0781V16.9219C49.875 16.2132 49.5935 15.5336 49.0924 15.0326C48.5914 14.5315 47.9118 14.25 47.2031 14.25H9.79688ZM33.8438 21.375C33.3713 21.375 32.9183 21.5627 32.5842 21.8967C32.2502 22.2308 32.0625 22.6838 32.0625 23.1562C32.0625 23.6287 32.2502 24.0817 32.5842 24.4158C32.9183 24.7498 33.3713 24.9375 33.8438 24.9375H44.5312C45.0037 24.9375 45.4567 24.7498 45.7908 24.4158C46.1248 24.0817 46.3125 23.6287 46.3125 23.1562C46.3125 22.6838 46.1248 22.2308 45.7908 21.8967C45.4567 21.5627 45.0037 21.375 44.5312 21.375H33.8438ZM33.8438 32.0625C33.3713 32.0625 32.9183 32.2502 32.5842 32.5842C32.2502 32.9183 32.0625 33.3713 32.0625 33.8438C32.0625 34.3162 32.2502 34.7692 32.5842 35.1033C32.9183 35.4373 33.3713 35.625 33.8438 35.625H44.5312C45.0037 35.625 45.4567 35.4373 45.7908 35.1033C46.1248 34.7692 46.3125 34.3162 46.3125 33.8438C46.3125 33.3713 46.1248 32.9183 45.7908 32.5842C45.4567 32.2502 45.0037 32.0625 44.5312 32.0625H33.8438ZM18.7423 27.4811C19.3772 27.4811 20.0058 27.3561 20.5923 27.1131C21.1789 26.8702 21.7118 26.5141 22.1607 26.0652C22.6096 25.6163 22.9657 25.0833 23.2086 24.4968C23.4516 23.9103 23.5766 23.2817 23.5766 22.6468C23.5766 22.012 23.4516 21.3833 23.2086 20.7968C22.9657 20.2103 22.6096 19.6773 22.1607 19.2284C21.7118 18.7795 21.1789 18.4234 20.5923 18.1805C20.0058 17.9375 19.3772 17.8125 18.7423 17.8125C17.4602 17.8125 16.2305 18.3218 15.3239 19.2284C14.4173 20.135 13.908 21.3647 13.908 22.6468C13.908 23.929 14.4173 25.1586 15.3239 26.0652C16.2305 26.9718 17.4602 27.4811 18.7423 27.4811ZM13.7441 29.8965C12.934 29.8984 12.1577 30.221 11.5848 30.7938C11.012 31.3667 10.6894 32.143 10.6875 32.9531C10.6876 34.2799 11.1312 35.5685 11.9477 36.6142C12.7643 37.6599 13.9069 38.4026 15.1941 38.7244L15.3829 38.7742C17.5916 39.3264 19.8966 39.3264 22.1017 38.7742L22.2941 38.7279C23.5813 38.4062 24.7239 37.6634 25.5404 36.6177C26.357 35.572 26.8006 34.2834 26.8007 32.9567C26.7997 32.146 26.4775 31.3687 25.9046 30.7951C25.3317 30.2215 24.5548 29.8984 23.7441 29.8965H13.7441Z" fill="#F1BF85"/>
</svg>
