<svg width="58" height="56" viewBox="0 0 58 56" fill="none" xmlns="http://www.w3.org/2000/svg">
<g clip-path="url(#clip0_24_26)">
<path d="M26.1 33.6H2.9V50.4C2.9 51.8852 3.51107 53.3096 4.59878 54.3598C5.68649 55.41 7.16174 56 8.7 56H49.3C50.8383 56 52.3135 55.41 53.4012 54.3598C54.4889 53.3096 55.1 51.8852 55.1 50.4V33.6H31.9V39.2H26.1V33.6ZM26.1 30.8H0V14C0 10.92 2.61 8.4 5.8 8.4H17.4V5.6C17.4 4.11479 18.0111 2.69041 19.0988 1.6402C20.1865 0.589998 21.6617 0 23.2 0L34.8 0C36.3383 0 37.8135 0.589998 38.9012 1.6402C39.9889 2.69041 40.6 4.11479 40.6 5.6V8.4H52.2C53.7383 8.4 55.2135 8.99 56.3012 10.0402C57.3889 11.0904 58 12.5148 58 14V30.8H31.9V25.2H26.1V30.8ZM34.8 8.4V5.6H23.2V8.4H34.8Z" fill="#F1BF85"/>
</g>
<defs>
<clipPath id="clip0_24_26">
<rect width="58" height="56" fill="white"/>
</clipPath>
</defs>
</svg>
