<svg width="59" height="59" viewBox="0 0 59 59" fill="none" xmlns="http://www.w3.org/2000/svg">
<path fill-rule="evenodd" clip-rule="evenodd" d="M5.74511 29.1001C5.74511 22.8294 8.23615 16.8155 12.6702 12.3814C17.1043 7.94731 23.1182 5.45627 29.3889 5.45627C35.6597 5.45627 41.6736 7.94731 46.1076 12.3814C50.5417 16.8155 53.0327 22.8294 53.0327 29.1001C53.0327 35.3708 50.5417 41.3847 46.1076 45.8188C41.6736 50.2529 35.6597 52.7439 29.3889 52.7439C23.1182 52.7439 17.1043 50.2529 12.6702 45.8188C8.23615 41.3847 5.74511 35.3708 5.74511 29.1001ZM29.3889 0C29.3889 0 14.2694 3.06589 8.81206 8.52322C3.35474 13.9805 1.78884 21 0.288842 29.1001C-1.21116 37.2002 3.35474 44.2196 8.81206 49.677C14.2694 55.1343 22.2888 56.5 29.3889 58.2002C36.489 59.9004 46.8989 53.5351 49.9658 49.677C53.0327 45.8188 60.6892 35.7002 58.489 29.1001C56.2888 22.5 55.4231 13.9805 49.9658 8.52322C44.5085 3.06589 29.3889 0 29.3889 0ZM32.1171 17.2782C32.1171 16.5546 31.8296 15.8607 31.318 15.3491C30.8064 14.8375 30.1125 14.55 29.3889 14.55C28.6654 14.55 27.9715 14.8375 27.4599 15.3491C26.9482 15.8607 26.6608 16.5546 26.6608 17.2782V26.372H17.567C16.8435 26.372 16.1496 26.6594 15.6379 27.171C15.1263 27.6826 14.8389 28.3765 14.8389 29.1001C14.8389 29.8236 15.1263 30.5175 15.6379 31.0292C16.1496 31.5408 16.8435 31.8282 17.567 31.8282H26.6608V40.922C26.6608 41.6455 26.9482 42.3395 27.4599 42.8511C27.9715 43.3627 28.6654 43.6501 29.3889 43.6501C30.1125 43.6501 30.8064 43.3627 31.318 42.8511C31.8296 42.3395 32.1171 41.6455 32.1171 40.922V31.8282H41.2108C41.9344 31.8282 42.6283 31.5408 43.1399 31.0292C43.6515 30.5175 43.939 29.8236 43.939 29.1001C43.939 28.3765 43.6515 27.6826 43.1399 27.171C42.6283 26.6594 41.9344 26.372 41.2108 26.372H32.1171V17.2782Z" fill="#F1BF85"/>
</svg>
