<svg width="48" height="46" viewBox="0 0 48 46" fill="none" xmlns="http://www.w3.org/2000/svg">
<path fill-rule="evenodd" clip-rule="evenodd" d="M24 1.00001C18.15 3.50001 0 11.3234 0 24.0691C0 34.2772 6.87 42.8993 16.41 45.9559C17.61 46.1578 18.06 45.4657 18.06 44.8601C18.06 44.3123 18.03 42.4956 18.03 40.5635C12 41.6305 10.44 39.1505 9.96 37.8529C9.69 37.1897 8.52 35.1423 7.5 34.5944C6.66 34.1618 5.46 33.0949 7.47 33.0661C9.36 33.0372 10.71 34.7386 11.16 35.4306C13.32 38.9199 16.77 37.9394 18.15 37.3339C18.36 35.8344 18.99 34.8251 19.68 34.2484C14.34 33.6716 8.76 31.6819 8.76 22.858C8.76 20.3492 9.69 18.273 11.22 16.6582C10.98 16.0814 10.14 13.7169 11.46 10.5449C11.46 10.5449 13.47 9.93929 18.06 12.9094C19.98 12.3904 22.02 12.1309 24.06 12.1309C26.1 12.1309 28.14 12.3904 30.06 12.9094C34.65 9.91045 36.66 10.5449 36.66 10.5449C37.98 13.7169 37.14 16.0814 36.9 16.6582C38.43 18.273 39.36 20.3204 39.36 22.858C39.36 31.7108 33.75 33.6716 28.41 34.2484C29.28 34.9693 30.03 36.3534 30.03 38.5161C30.03 41.6016 30 44.0816 30 44.8601C30 45.4657 30.45 46.1866 31.65 45.9559C36.4144 44.4099 43.4875 37.5404 43.4875 37.5404C43.4875 37.5404 47.9987 28.9027 48 24.0691C48 11.3234 29.85 -1.49999 24 1.00001Z" fill="#C77D27"/>
</svg>
