<svg width="49" height="48" viewBox="0 0 49 48" fill="none" xmlns="http://www.w3.org/2000/svg">
<path d="M45 14.3889C45 14.3889 49.5 28 45 32.6111C40.5 37.2222 39.6522 44 33.0556 44C33.0556 44 18.8889 49 13.9444 44C9 39 2 38.901 2 32.6111V14.3889C2 14.3889 7.34772 2.99999 13.9444 2.99999C13.9444 2.99999 21.1111 -1.01328e-05 33.0556 2.99999C45 5.99999 45 8.09898 45 14.3889Z" stroke="#C77D27" stroke-width="3" stroke-linecap="round" stroke-linejoin="round"/>
<path d="M11.5556 34.8889V26.9167V18.9445" stroke="#C77D27" stroke-width="3" stroke-linecap="round" stroke-linejoin="round"/>
<path d="M21.1111 34.8889V27.4861M21.1111 27.4861V18.9445M21.1111 27.4861C21.1111 18.9445 35.4444 18.9445 35.4444 27.4861V34.8889" stroke="#C77D27" stroke-width="3" stroke-linecap="round" stroke-linejoin="round"/>
<path d="M11.5556 12.1339L11.5795 12.1086" stroke="#C77D27" stroke-width="3" stroke-linecap="round" stroke-linejoin="round"/>
</svg>
