<svg width="60" height="59" viewBox="0 0 60 59" fill="none" xmlns="http://www.w3.org/2000/svg">
<path fill-rule="evenodd" clip-rule="evenodd" d="M6.45629 29.1001C6.45629 22.8294 8.94733 16.8155 13.3814 12.3814C17.8155 7.94731 23.8294 5.45627 30.1001 5.45627C36.3708 5.45627 42.3847 7.94731 46.8188 12.3814C51.2529 16.8155 53.7439 22.8294 53.7439 29.1001C53.7439 35.3708 51.2529 41.3847 46.8188 45.8188C42.3847 50.2529 36.3708 52.7439 30.1001 52.7439C23.8294 52.7439 17.8155 50.2529 13.3814 45.8188C8.94733 41.3847 6.45629 35.3708 6.45629 29.1001ZM30.1001 0C30.1001 0 14.9806 3.06589 9.52324 8.52322C4.06592 13.9805 2.50002 21 1.00002 29.1001C-0.499976 37.2002 4.06592 44.2196 9.52324 49.677C14.9806 55.1343 23 56.5 30.1001 58.2002C37.2002 59.9004 47.61 53.5351 50.677 49.677C53.7439 45.8188 61.4004 35.7002 59.2002 29.1001C57 22.5 56.1343 13.9805 50.677 8.52322C45.2197 3.06589 30.1001 0 30.1001 0ZM32.8282 17.2782C32.8282 16.5546 32.5408 15.8607 32.0292 15.3491C31.5176 14.8375 30.8237 14.55 30.1001 14.55C29.3766 14.55 28.6827 14.8375 28.171 15.3491C27.6594 15.8607 27.372 16.5546 27.372 17.2782V26.372H18.2782C17.5547 26.372 16.8607 26.6594 16.3491 27.171C15.8375 27.6826 15.5501 28.3765 15.5501 29.1001C15.5501 29.8236 15.8375 30.5175 16.3491 31.0292C16.8607 31.5408 17.5547 31.8282 18.2782 31.8282H27.372V40.922C27.372 41.6455 27.6594 42.3395 28.171 42.8511C28.6827 43.3627 29.3766 43.6501 30.1001 43.6501C30.8237 43.6501 31.5176 43.3627 32.0292 42.8511C32.5408 42.3395 32.8282 41.6455 32.8282 40.922V31.8282H41.922C42.6456 31.8282 43.3395 31.5408 43.8511 31.0292C44.3627 30.5175 44.6502 29.8236 44.6502 29.1001C44.6502 28.3765 44.3627 27.6826 43.8511 27.171C43.3395 26.6594 42.6456 26.372 41.922 26.372H32.8282V17.2782Z" fill="#C77D27"/>
</svg>
